<svg xmlns:dc="http://purl.org/dc/elements/1.1/" xmlns:cc="http://creativecommons.org/ns#" xmlns:rdf="http://www.w3.org/1999/02/22-rdf-syntax-ns#" xmlns:svg="http://www.w3.org/2000/svg" xmlns="http://www.w3.org/2000/svg" xmlns:sodipodi="http://sodipodi.sourceforge.net/DTD/sodipodi-0.dtd" xmlns:inkscape="http://www.inkscape.org/namespaces/inkscape" version="1.1" x="0px" y="0px" viewBox="0 0 100 125"><g transform="translate(0,-952.36218)"><path style="text-indent:0;text-transform:none;direction:ltr;block-progression:tb;baseline-shift:baseline;color:#000000;enable-background:accumulate;" d="m 49.672874,955.38172 -22.09977,5.68818 c -0.20757,0.0536 -0.39676,0.17617 -0.53064,0.34379 l -2.87172,3.81296 c -0.13394,0.16758 -0.21183,0.37929 -0.2185,0.59382 l 0,3.7817 c -0.002,0.31434 0.15316,0.62594 0.40578,0.8126 2.08196,2.00351 7.58504,5.92544 7.58504,5.92544 l 0.0937,8.60754 c -1.92324,1.54457 -3.06178,4.20739 -3.09022,6.40711 0,1.7927 0.91355,3.4592 2.09136,5.1881 1.35318,1.9601 2.85712,3.79484 4.08909,5.40734 0.63146,1.785 1.60188,3.6436 2.8405,5.4069 6.3e-4,1.7206 0.24318,3.6179 0.56191,5.0944 -6.4937,2.5014 -14.48522,5.7037 -20.69512,10.4074 -6.19699,4.694 -10.6528401,11.0433 -9.7076601,19.4712 0.45777,2.1348 2.5049501,3.0327 4.1515101,3.5941 2.34049,0.7891 5.56183,1.4013 9.42673,1.9065 7.7298,1.01 17.98692,1.5308 28.249,1.5314 10.26207,6e-4 20.50209,-0.5231 28.24899,-1.5314 3.87346,-0.5043 7.10556,-1.119 9.45795,-1.9065 2.10807,-0.5942 3.52626,-1.7284 4.21389,-3.5629 0.94542,-8.4308 -3.56992,-14.8079 -9.80131,-19.5024 -6.25244,-4.7102 -14.26025,-7.9048 -20.75755,-10.4074 0.34678,-1.7551 0.59063,-3.6607 0.53065,-5.0944 1.23862,-1.7633 2.20902,-3.6219 2.8405,-5.4069 1.38969,-1.8797 2.96656,-3.75254 4.15151,-5.46984 1.16776,-1.7062 2.06015,-3.3461 2.06015,-5.1256 -5e-5,-3.01322 -1.49987,-5.99772 -4.08908,-6.84466 l 0.0936,-8.16999 c 0,0 5.66253,-3.78539 8.584,-5.92544 0.25262,-0.18666 0.40823,-0.49826 0.40579,-0.8126 l 0,-3.7817 c -0.007,-0.21453 -0.0846,-0.42624 -0.2185,-0.59382 l -2.87172,-3.81296 c -0.13389,-0.16762 -0.32307,-0.29018 -0.53065,-0.34379 l -22.09976,-5.68818 c -0.24977,-0.044 -0.34085,0 -0.49943,0 z m -0.7492,2.25032 0,11.87642 c -4.00394,0.0714 -8.00475,0.58173 -12.07995,1.50018 -3.18558,-2.47519 -5.97493,-5.25684 -7.58509,-8.3135 z m 1.99772,0 18.79105,4.84433 c -1.55487,3.0752 -4.31777,5.88269 -7.49145,8.376 -3.80584,-0.80924 -7.55228,-1.27704 -11.2996,-1.34391 z m 20.69512,5.50066 2.27865,3.00035 0,3.00036 -5.11916,3.7192 c -1.19317,-1.00605 -3.20828,-1.20038 -4.55729,-1.53143 3.13613,-2.42234 5.7531,-4.78814 7.3978,-8.18848 z m -43.98103,0.78134 c 1.59958,2.91811 4.05663,5.4285 6.80473,7.68842 -1.25551,0.36209 -2.42607,0.50722 -3.33994,1.21889 l -5.15037,-3.75044 0,-2.93786 z m 22.28705,7.59466 c 5.48435,0 10.99715,0.87616 16.69968,2.53155 -0.0273,0.0969 -0.0636,0.21318 -0.0936,0.31254 l -33.21208,0 c -0.0301,-0.0993 -0.0663,-0.21566 -0.0936,-0.31254 5.70253,-1.65539 11.21533,-2.53155 16.69968,-2.53155 z m -15.98175,4.83151 30.96464,0 c -0.6618,3.58143 -3.40739,6.8187 -5.99745,9.00849 -2.93757,2.4e-4 -5.70065,-1.95761 -8.98544,-1.99484 -3.54162,-0.0258 -6.95213,1.99508 -9.92616,2.00024 -2.77671,-2.41745 -4.71174,-5.65738 -6.05559,-9.01389 z m 2.02962,8.00873 c 1.04094,1.48882 3,3 3.96354,3.0054 3.54157,-0.0768 6.55018,-1.95705 9.98859,-2.00024 3.51184,0.1058 5.74658,1.95366 9.04787,1.99484 1,0 3,-2 4,-3 0,2.46902 -0.0627,5.81822 -0.0627,8.28722 1.29106,-1.9357 2.74618,-4.08503 3.90179,-5.84438 1.28105,1.10388 2.06822,2.99131 2.09136,4.56308 0,1.0793 -0.60435,2.4208 -1.68557,4.0004 -1.08123,1.5797 -2.60038,3.348 -4.1203,5.37574 -1.60467,3.0864 -3.3016,6.3274 -5.46241,8.5635 -2.4353,2.4254 -5.27653,4.063 -7.70995,4.063 -2.43341,0 -5.30586,-1.6376 -7.74116,-4.063 -2.1148,-2.8429 -4.34942,-5.6587 -5.46246,-8.5635 -1.44933,-1.93354 -2.93378,-3.70914 -4.02665,-5.31324 -1.09288,-1.604 -1.74801,-2.9969 -1.74801,-4.0629 0.11088,-1.60793 0.65487,-2.84264 1.46708,-4.00052 1.17058,1.76406 2.34926,3.52272 3.52722,5.28182 -0.002,-2.92649 0.0308,-5.87021 0.0318,-8.28722 z m 23.78466,25.60196 c -0.36911,2.9976 -1.35526,5.9991 -2.77808,8.376 -1.92534,3.0819 -5.05673,5.019 -7.05445,5.019 -1.99772,0 -5.71173,-2.8248 -7.05444,-5.0193 -1.41788,-2.3687 -2.40601,-5.3577 -2.77808,-8.3448 2.72089,2.6254 5.83708,5.3631 9.83252,5.3756 3.99544,-0.013 7.47498,-2.9659 9.83253,-5.4065 z m -20.75755,4.4067 c 0.54239,1.7859 1.27833,3.486 2.185,5.0006 1.10553,1.8468 2.50596,3.4194 4.1203,4.5005 -2.48503,0.9084 -4.99031,2.4545 -7.58509,4.5944 l -1.71679,-12.8765 c 1.01734,-0.408 2.02733,-0.8449 2.99658,-1.219 z m 21.85005,0.031 c 0.96089,0.3707 1.9873,0.7851 2.99658,1.1878 l -1.68558,12.7827 c -2.44043,-2.1882 -4.88161,-3.7504 -7.36659,-4.6256 1.51541,-1.0758 2.81826,-2.6176 3.87058,-4.3755 0.90188,-1.5066 1.6434,-3.1938 2.18501,-4.9694 z m -26.78192,1.9378 c 0.7086,5.3443 1.41096,10.6893 2.12257,16.0332 2.39878,-2.2017 5.12262,-4.4425 7.74117,-5.7819 0,0.698 0,1.3959 0,2.0939 1.66118,1.3795 3.32898,2.7511 4.99429,4.1255 l 0,14.5643 c -9.85051,-0.034 -19.63743,-0.542 -26.9692,-1.5002 -3.79416,-0.4959 -6.94019,-1.132 -9.05217,-1.844 -1.18809,-0.403 -2.23178,-0.7854 -2.80929,-1.7815 -0.5605597,-4.7256 0.69502,-8.6611 3.12144,-12.0326 0.43225,0.4975 0.83997,1.0146 1.24857,1.5314 3.50569,-2.694 6.9525,-5.399 9.95738,-7.7509 0.68789,-1.385 1.37358,-2.7711 2.0601,-4.1567 2.58831,-1.2995 5.27154,-2.5346 7.58514,-3.5005 z m 31.71379,0.031 c 2.57568,1.0646 5.21467,2.2378 7.77237,3.5629 0.67632,1.3543 1.35263,2.7086 2.02889,4.063 3.42818,2.7426 7.01891,5.4336 9.95738,7.7821 0.40224,-0.5157 0.79408,-1.0392 1.18614,-1.5626 2.44242,3.3719 3.71299,7.3087 3.15265,12.0326 -0.51298,1.0801 -1.93971,1.4768 -2.84051,1.7815 -2.12632,0.7118 -5.28029,1.3489 -9.08337,1.844 -7.36463,0.9588 -17.16101,1.4694 -27.03164,1.5002 l 0,-14.5643 c 1.66484,-1.375 3.33221,-2.7471 4.9943,-4.1255 0,-0.7813 0,-1.5627 0,-2.344 3.34592,1.8866 5.21279,3.6567 7.70995,6.157 0.74795,-5.3716 1.44105,-10.7506 2.15384,-16.1269 z m -42.3891,5.1881 -0.53065,1.0938 -8.08452,6.3134 -0.28093,-0.3439 c 2.67222,-2.95 5.73203,-5.185 8.8961,-7.0633 z m 53.28291,0.125 c 3.27175,1.9475 6.4079,4.2717 8.77123,6.9383 l -0.24971,0.3126 -8.02209,-6.2508 z m -52.72105,13.6896 c 0,1.8335 0,3.6672 0,5.5007 1.61361,1.1868 3.30029,2.4266 4.65093,3.5004 2.38075,0 4.59118,0 6.67988,0 1.57987,-1.2405 3.25208,-2.4877 4.65094,-3.5004 0,-1.8927 0,-3.8699 0,-5.5007 -5.32725,0 -10.65451,0 -15.98175,0 z m 35.95894,0 c 0,1.8335 0,3.6672 0,5.5007 1.69549,1.2067 3.20389,2.3805 4.65094,3.5004 2.38074,0 4.59117,0 6.67987,0 1.64602,-1.3201 3.1337,-2.3857 4.65094,-3.5004 0,-2.0322 0,-3.6081 0,-5.5007 -5.32725,-0.011 -10.65451,0 -15.98175,0 z m -33.96123,2.0003 11.98632,0 0,2.5003 -3.33994,2.5003 -5.30644,0 -3.33994,-2.5003 z m 35.95895,0 11.98631,0 0,2.5003 -3.33994,2.5003 -5.30644,0 -3.33993,-2.5003 z m -29.96579,2.0314 c -0.52565,0 -0.93643,0.4427 -0.93643,0.9689 0,0.5263 0.41078,0.9376 0.93643,0.9376 0.52565,0 0.93643,-0.4113 0.93643,-0.9376 0,-0.5262 -0.41078,-0.9689 -0.93643,-0.9689 z m 35.95894,0 c -0.52565,0 -0.93643,0.4427 -0.93643,0.9689 0,0.5263 0.41078,0.9376 0.93643,0.9376 0.52565,0 0.93643,-0.4113 0.93643,-0.9376 0,-0.5262 -0.41078,-0.9689 -0.93643,-0.9689 z" fill="#000000" fill-opacity="1" stroke="none" marker="none" visibility="visible" display="inline" overflow="visible"/></g><text x="0" y="115" fill="#000000" font-size="5px" font-weight="bold" font-family="'Helvetica Neue', Helvetica, Arial-Unicode, Arial, Sans-serif">Created by AFY Studio</text><text x="0" y="120" fill="#000000" font-size="5px" font-weight="bold" font-family="'Helvetica Neue', Helvetica, Arial-Unicode, Arial, Sans-serif">from the Noun Project</text></svg>