<svg xmlns:dc="http://purl.org/dc/elements/1.1/" xmlns:cc="http://creativecommons.org/ns#" xmlns:rdf="http://www.w3.org/1999/02/22-rdf-syntax-ns#" xmlns:svg="http://www.w3.org/2000/svg" xmlns="http://www.w3.org/2000/svg" xmlns:sodipodi="http://sodipodi.sourceforge.net/DTD/sodipodi-0.dtd" xmlns:inkscape="http://www.inkscape.org/namespaces/inkscape" fill="#000000" version="1.1" x="0px" y="0px" viewBox="0 0 100 125"><path style="font-size:medium;font-style:normal;font-variant:normal;font-weight:normal;font-stretch:normal;text-indent:0;text-align:start;text-decoration:none;line-height:normal;letter-spacing:normal;word-spacing:normal;text-transform:none;direction:ltr;block-progression:tb;writing-mode:lr-tb;text-anchor:start;baseline-shift:baseline;opacity:1;color:#000000;fill:#000000;fill-opacity:1;stroke:none;stroke-width:2;marker:none;visibility:visible;display:inline;overflow:visible;enable-background:accumulate;font-family:Sans;-inkscape-font-specification:Sans" d="M 39 7 C 30.175286 7 23 14.175289 23 23 C 23 30.339768 27.972891 36.530017 34.71875 38.40625 C 24.060539 40.380663 16 49.556959 16 60.65625 L 16 92 A 1.0001 1.0001 0 0 0 17 93 L 83 93 A 1.0001 1.0001 0 0 0 84 92 L 84 68.84375 C 84 60.794078 78.325848 54.081518 70.71875 52.40625 C 75.517084 50.834318 79 46.315534 79 41 C 79 34.384428 73.615569 29 67 29 C 60.38443 29 55 34.384428 55 41 C 55 42.489275 55.282753 43.901499 55.78125 45.21875 C 52.520307 41.748813 48.166696 39.313959 43.25 38.40625 C 50.010795 36.539817 55 30.350387 55 23 C 55 14.175289 47.824714 7 39 7 z M 39 9 C 46.743832 9 53 15.256169 53 23 C 53 30.743832 46.743832 37 39 37 C 31.256169 37 25 30.743832 25 23 C 25 15.256169 31.256169 9 39 9 z M 67 31 C 72.53469 31 77 35.465308 77 41 C 77 46.534692 72.53469 51 67 51 C 61.465309 51 57 46.534692 57 41 C 57 35.465308 61.465309 31 67 31 z M 39 40 C 48.318526 40 56.134975 45.918686 58.90625 54.125 C 53.627237 56.977625 50 62.455441 50 68.84375 L 50 91 L 18 91 L 18 60.65625 C 18 49.197878 27.340012 40 39 40 z M 59.375 50.25 C 60.518305 51.19402 61.842098 51.934784 63.28125 52.40625 C 62.377164 52.607751 61.500165 52.882977 60.65625 53.21875 C 60.294235 52.190405 59.874928 51.204611 59.375 50.25 z M 67 54 C 75.332888 54 82 60.614436 82 68.84375 L 82 91 L 52 91 L 52 68.84375 C 52 60.614436 58.667114 54 67 54 z "/><text x="0" y="115" fill="#000000" font-size="5px" font-weight="bold" font-family="'Helvetica Neue', Helvetica, Arial-Unicode, Arial, Sans-serif">Created by pictohaven</text><text x="0" y="120" fill="#000000" font-size="5px" font-weight="bold" font-family="'Helvetica Neue', Helvetica, Arial-Unicode, Arial, Sans-serif">from the Noun Project</text></svg>