<svg xmlns:dc="http://purl.org/dc/elements/1.1/" xmlns:cc="http://creativecommons.org/ns#" xmlns:rdf="http://www.w3.org/1999/02/22-rdf-syntax-ns#" xmlns:svg="http://www.w3.org/2000/svg" xmlns="http://www.w3.org/2000/svg" xmlns:sodipodi="http://sodipodi.sourceforge.net/DTD/sodipodi-0.dtd" xmlns:inkscape="http://www.inkscape.org/namespaces/inkscape" viewBox="0 0 100 125" version="1.1" x="0px" y="0px"><g transform="translate(0,-952.36216)"><path d="m 50,957.36212 c 9.034298,0 17.698559,3.58885 24.086729,9.97706 6.388222,6.3882 9.97708,15.05247 9.97708,24.08675 -0.01499,7.53866 -2.560446,14.83617 -7.151933,20.81527 -8.950187,11.6551 -26.967531,35.1209 -26.967531,35.1209 l 0,-21.8751 c -9.024185,-0.015 -17.673719,-3.6097 -24.049783,-9.9958 -6.376116,-6.386 -9.957638,-15.0411 -9.958371,-24.06527 0,-9.03428 3.588858,-17.69855 9.97708,-24.08675 C 32.30144,960.95097 40.965701,957.36212 50,957.36212 Z m 0,13.75654 c -11.215378,0 -20.307271,9.09188 -20.307271,20.30727 0,11.21537 9.091893,20.30727 20.307271,20.30727 11.215378,0 20.30727,-9.0919 20.30727,-20.30727 0,-11.21539 -9.091892,-20.30727 -20.30727,-20.30727 z" style="opacity:1;fill:#000000;fill-opacity:1;stroke:none;stroke-width:1;stroke-linecap:butt;stroke-linejoin:miter;stroke-miterlimit:4;stroke-dasharray:none;stroke-dashoffset:0;stroke-opacity:1"/><path style="" d="m 44.077141,979.13827 6.718484,2.03319 -1.414434,6.18814 7.248935,11.49219 0.618809,2.12161 -1.237617,0.884 -0.176817,1.2376 0.353634,0.6188 -5.480919,-0.6188 -0.265173,-1.768 -1.060852,-1.326 -0.441991,0.884 0,-1.59122 -1.679661,-1.14921 -0.618756,0.70722 -0.353634,-1.41444 -0.265174,-1.59125 -1.591251,-2.74041 0.353634,-1.23761 -0.530504,-1.23762 0.08841,-2.03324 -0.441991,-0.26522 -0.176817,-1.85643 -0.795626,-0.61881 0.530452,-1.41443 -0.707217,-1.67961 1.0608,-1.76801 z" fill="#000000" fill-rule="evenodd" stroke="none"/></g><text x="0" y="115" fill="#000000" font-size="5px" font-weight="bold" font-family="'Helvetica Neue', Helvetica, Arial-Unicode, Arial, Sans-serif">Created by anbileru adaleru</text><text x="0" y="120" fill="#000000" font-size="5px" font-weight="bold" font-family="'Helvetica Neue', Helvetica, Arial-Unicode, Arial, Sans-serif">from the Noun Project</text></svg>