<?xml version="1.0" encoding="utf-8"?>
<!-- Generator: Adobe Illustrator 21.1.0, SVG Export Plug-In . SVG Version: 6.00 Build 0)  -->
<svg version="1.1" id="Layer_1" xmlns="http://www.w3.org/2000/svg" xmlns:xlink="http://www.w3.org/1999/xlink" x="0px" y="0px"
	 viewBox="0 0 100 103" style="enable-background:new 0 0 100 103;" xml:space="preserve">
<g>
	<path d="M92,81.4L90,79L88,75.5l-0.4-1.8L56.9,45L56.4,46l30.2,28.3l0.3,1.5l2.2,3.8l1.3,1.5l-1.1,0.6l-1.6,2.2l0.6,3.1l-2.3,2.5
		l0.3,1l0.1,1.6v1.3l1.2,0.1v0.3l-0.5,1.5l-19.7,1.8l-1-0.6v-3l-1.1-2l-0.8-2.3h-1.4L62,88L60,86h-2.4c0-0.5,0-0.8-0.1-1.1
		c-0.1-0.4-0.8-1.4-1.1-1.9l-0.2-0.2h-4.2l-1.3-1.4l-0.2-0.1c-0.8-0.4-1.8-0.9-2-1.2c-0.2-0.3-0.5-0.5-0.9-0.5
		c-0.2,0-0.5,0.1-0.7,0.1c-0.2,0.1-0.3,0.1-0.4,0.1c-0.3,0-1.3-0.4-1.9-0.7l-4.7,0l-0.5-1.3h-0.4l0-1.2l0.7-4.8h-2.5
		c-0.2-0.4-0.4-1.1-0.7-1.4c-0.1-0.1,0-0.6,0.1-1l0.1-0.3l-2.6-1.9L33.8,65l-0.1-0.1c-0.5-0.5-2.2-2.4-2.9-2.6
		c-0.4-0.1-1.1-0.6-1.8-1.1l0.1-2.7l1.7-1.3l-0.2-0.4c-1.5-2.5-1.9-2.6-2-2.7c-0.3-0.1-1.7-0.6-2.2-0.8l-1.6-2.8l-0.3-2.1l0,0.1
		l2.1,1l1.1-1.7l-0.1-0.3c-0.2-0.4-0.6-1.1-1.1-1.3c-0.1-0.1-0.2-0.4-0.3-0.8v-1.3l-1.9-0.9l-0.9,1.7l-2.7-1.3c0-1,0.1-2.1,0-2.4
		c-0.1-0.2-0.3-0.6-0.8-1.3c-0.3-0.6-0.8-1.2-0.9-1.5c-0.2-0.6-2.7-2.6-4.7-4.3l-0.1-4.5c0.1-1.2,0.2-3.2-0.1-3.7
		c-0.3-0.6-3.8-4.2-4-4.4C10,21.3,9.5,20.7,9,20c0-0.6,0.1-1.8,0-2.2c0.1-0.3,1-1.6,2.2-2.9l0.1-0.2l-0.1-3.2
		c0.8-3.4-0.3-5.7-0.6-6.3V2.5h28.9L40.3,6L41,5c0.2-0.2,0.6-0.9,0.6-1.3c0-0.1,0.3-0.6,0.8-1.2h1.6l0,10.2l1-0.5L44.9,1.5h-3.1
		l-0.2,0.2c-0.5,0.6-0.8,1.1-1,1.4l-0.3-1.6H9.7v4l0.1,0.1c0,0,1.4,2.2,0.5,5.8l0,0l0.1,2.9C7.8,17.2,8,17.7,8,17.9
		c0.1,0.2,0,1.3,0,2.2l0,0.2l0.1,0.1c0.1,0.1,1,1.5,1.3,1.7c0.4,0.4,3.6,3.7,3.8,4.1c0.1,0.2,0.1,1.6-0.1,3.2l0.1,5.1l0.2,0.1
		c2.6,2.1,4.4,3.8,4.6,4c0.1,0.4,0.5,1,1,1.7c0.2,0.3,0.6,1,0.7,1.1c0,0.2,0,1.2,0,2.4l0,0.3l4.1,2l0.9-1.6l0.5,0.2l0,0.8l0,0.1
		c0.1,0.6,0.4,1.4,0.9,1.5c0.1,0,0.2,0.2,0.4,0.6l-0.3,0.4l-0.9-0.4l-0.4-1l-1.8-0.3l0.7,4.3l1.9,3.4l0.2,0.1c0,0,1.9,0.7,2.3,0.8
		c0.2,0.1,0.7,0.9,1.3,1.9l-1.4,1L28,61.7l0.2,0.2c0.2,0.2,1.5,1.1,2.3,1.4c0.3,0.1,1.5,1.2,2.4,2.2l0.6,2.4l2.3,1.7
		c-0.1,0.6-0.2,1.3,0.2,1.7c0.2,0.2,0.4,0.8,0.6,1.3l0.1,0.4h2l-0.5,3.7v2.3H39l0.5,1.3h5.1c0.5,0.2,1.6,0.7,2.2,0.7
		c0.3,0,0.6-0.1,0.8-0.2c0.1,0,0.3-0.1,0.3-0.1c0.4,0.6,1.7,1.3,2.4,1.6l1.5,1.6h4.1c0.4,0.7,0.8,1.3,0.8,1.4c0,0.1,0,0.7,0,1.2
		L56.5,87h3.1l1.6,1.7l1.4,1.4h1.1l0.6,1.7l1,1.9v3.3l1.8,1.1L88,96.3l0.7-2.2l0-1.4l-1.2-0.1v-0.4l-0.1-1.7l-0.2-0.6l2.2-2.5
		l-0.6-3.2l1.1-1.6L92,81.4z"/>
	<path d="M37.1,24.9c0,0,0.2,2.4,1,6.1l0.3,1.3c1.3,5.1,3.8,12.7,9.1,20.1c0.5,1,1.5,1.6,2.5,1.6c1.1,0,2.1-0.6,2.5-1.6
		c1-1.4,1.9-2.9,2.8-4.4c0-0.3,0.2-0.6,0.4-0.8c5.1-9.2,6.6-17.7,7-21c0.1-0.8,0.2-1.5,0.2-2.3c0-7.1-5.8-12.9-12.9-12.9
		c-7.1,0-12.9,5.8-12.9,12.9c0,0.1,0,0.3,0,0.4h0L37.1,24.9z M50,12c6.7,0,12.1,5.4,12.1,12.1c0,0.7-0.1,1.3-0.2,2h0l-0.1,0.3l0,0
		c-0.6,4.3-2.6,14.9-10.1,25.7c-0.3,0.7-1.1,1.2-1.9,1.2c-0.8,0-1.5-0.5-1.9-1.2C39.3,39.5,38,26.8,37.9,25.1l0,0l0-0.2
		c0-0.2,0-0.5,0-0.7C37.9,17.4,43.3,12,50,12z"/>
	<path d="M61.1,24.1c0-6.1-5-11.1-11.1-11.1c-6.1,0-11.1,5-11.1,11.1s5,11.1,11.1,11.1C56.1,35.2,61.1,30.2,61.1,24.1z M39.7,24.1
		c0-5.7,4.6-10.3,10.3-10.3s10.3,4.6,10.3,10.3c0,5.7-4.6,10.3-10.3,10.3S39.7,29.8,39.7,24.1z"/>
</g>
<g>
	<path d="M57.4,24.9c-2-0.3-3.9-0.3-5.9-0.2c0.1-0.2,0.2-0.4,0.2-0.6c0.1-0.2,0.2-0.5,0.3-0.7c1.1,0,2.2,0,3.3,0
		c1.7,0,1.7-2.6,0-2.6c-0.7,0-1.5,0-2.2,0c0.3-0.9,0.6-1.9,1.3-2.6c1.2-1.2-0.7-3.1-1.9-1.9c-1.1,1.2-1.7,2.8-2.3,4.4
		c-1.7,0-3.5-0.1-5.2-0.1c-0.1,0-0.1-0.1-0.2-0.1c-0.5-0.3-1-0.2-1.4,0.1c-0.2,0-0.3,0-0.5,0c-1.7,0-1.7,2.6,0,2.6
		c0.6,0,1.1,0,1.7,0c1.2,0.3,2.4,0.2,3.6,0.2c0.3,0,0.6,0,0.9,0c-0.2,0.5-0.5,1-0.7,1.5c-0.1,0.1-0.2,0.1-0.2,0.2c-1.3,0-2.7,0-4,0
		c-1.7,0-1.7,2.6,0,2.6c0.9,0,1.9,0,2.8,0c-0.5,0.9-0.9,1.8-1.4,2.6c-0.7,1.3,1,2.6,2.1,1.6c1-1,1.4-2.3,2-3.6
		c0.1-0.1,0.1-0.2,0.1-0.3c0.1-0.1,0.1-0.3,0.2-0.4c0.7,0,1.5,0,2.2,0c1.8,0,3.8,0.5,5.4-0.4C58.6,26.8,58.5,25.1,57.4,24.9z"/>
</g>
</svg>
