<svg xmlns="http://www.w3.org/2000/svg" xmlns:xlink="http://www.w3.org/1999/xlink" version="1.1" x="0px" y="0px" viewBox="0 0 90 112.5" enable-background="new 0 0 90 90" xml:space="preserve"><g><path d="M73.036,47.849c-7.509-1.202-14.981-1.066-22.496-0.866c0.312-0.7,0.629-1.396,0.933-2.1   c0.402-0.931,0.813-1.854,1.225-2.775c4.172,0.02,8.344,0.063,12.51,0.063c6.449,0,6.448-9.988,0-10   c-2.784-0.005-5.567-0.039-8.352-0.078c1.202-3.411,2.364-7.236,4.887-9.886c4.443-4.668-2.617-11.75-7.07-7.071   c-4.273,4.49-6.457,10.759-8.647,16.76c-6.594-0.146-13.187-0.312-19.781-0.403c-0.261-0.118-0.517-0.246-0.763-0.389   c-2.021-1.172-3.965-0.787-5.365,0.33c-0.636-0.003-1.271-0.012-1.908-0.013c-6.449-0.012-6.448,9.987,0,10   c2.156,0.004,4.313,0.022,6.468,0.049c4.424,1.186,9.309,0.917,13.788,0.775c1.084-0.034,2.17-0.043,3.256-0.063   c-0.888,1.929-1.785,3.852-2.706,5.762c-0.358,0.236-0.676,0.515-0.944,0.831c-5.119,0.082-10.24,0.139-15.361,0.146   c-6.448,0.009-6.449,10.009,0,10c3.613-0.005,7.226-0.04,10.838-0.086c-1.761,3.373-3.551,6.731-5.405,10.063   c-2.769,4.973,3.756,10.067,7.853,6.059c3.887-3.802,5.51-8.711,7.782-13.512c0.208-0.44,0.344-0.876,0.429-1.303   c0.256-0.497,0.508-0.995,0.762-1.493c2.851-0.058,5.702-0.119,8.554-0.184c6.786-0.153,14.444,1.966,20.712-1.477   C77.77,55.044,77.411,48.549,73.036,47.849z"/></g><text x="0" y="105" fill="#000000" font-size="5px" font-weight="bold" font-family="'Helvetica Neue', Helvetica, Arial-Unicode, Arial, Sans-serif">Created by Alex</text><text x="0" y="110" fill="#000000" font-size="5px" font-weight="bold" font-family="'Helvetica Neue', Helvetica, Arial-Unicode, Arial, Sans-serif">from the Noun Project</text></svg>